<svg width="106" height="40" viewBox="0 0 106 40" fill="none" xmlns="http://www.w3.org/2000/svg">
<rect width="106" height="40" rx="10" fill="white"/>
<path d="M28.3975 20.336C28.3975 21.456 28.1628 22.4427 27.6935 23.296C27.2242 24.1493 26.5415 24.816 25.6455 25.296C24.7602 25.7653 23.7042 26 22.4775 26H18.4615V14.704H22.4775C23.7042 14.704 24.7602 14.9387 25.6455 15.408C26.5415 15.8667 27.2242 16.5227 27.6935 17.376C28.1628 18.2187 28.3975 19.2053 28.3975 20.336ZM22.2855 23.984C23.5015 23.984 24.4402 23.664 25.1015 23.024C25.7735 22.384 26.1095 21.488 26.1095 20.336C26.1095 19.1733 25.7735 18.272 25.1015 17.632C24.4402 16.992 23.5015 16.672 22.2855 16.672H20.7175V23.984H22.2855ZM33.5585 17.024C34.3052 17.024 34.9452 17.2 35.4785 17.552C36.0118 17.904 36.3905 18.3787 36.6145 18.976V17.136H38.8545V26H36.6145V24.144C36.3905 24.7413 36.0118 25.2213 35.4785 25.584C34.9452 25.936 34.3052 26.112 33.5585 26.112C32.8118 26.112 32.1398 25.9307 31.5425 25.568C30.9452 25.2053 30.4758 24.6827 30.1345 24C29.8038 23.3067 29.6385 22.496 29.6385 21.568C29.6385 20.64 29.8038 19.8347 30.1345 19.152C30.4758 18.4587 30.9452 17.9307 31.5425 17.568C32.1398 17.2053 32.8118 17.024 33.5585 17.024ZM34.2625 18.992C33.5585 18.992 32.9932 19.2213 32.5665 19.68C32.1398 20.1387 31.9265 20.768 31.9265 21.568C31.9265 22.368 32.1398 22.9973 32.5665 23.456C32.9932 23.904 33.5585 24.128 34.2625 24.128C34.9452 24.128 35.5052 23.8987 35.9425 23.44C36.3905 22.9707 36.6145 22.3467 36.6145 21.568C36.6145 20.7787 36.3905 20.1547 35.9425 19.696C35.5052 19.2267 34.9452 18.992 34.2625 18.992ZM42.419 17.136L44.835 23.152L47.075 17.136H49.555L44.131 30.224H41.635L43.635 25.744L39.907 17.136H42.419ZM53.2701 16.816V14.704H57.3341V26H54.9661V16.816H53.2701ZM63.1754 14.272C63.9434 14.272 64.5994 14.4053 65.1434 14.672C65.698 14.9387 66.114 15.3067 66.3914 15.776C66.6794 16.2453 66.8234 16.768 66.8234 17.344C66.8234 18.0693 66.626 18.6667 66.2314 19.136C65.8367 19.5947 65.314 19.8773 64.6634 19.984V20.064C66.242 20.5333 67.0314 21.4613 67.0314 22.848C67.0314 23.8187 66.706 24.608 66.0554 25.216C65.4047 25.8133 64.4874 26.112 63.3034 26.112C62.0447 26.112 61.042 25.8027 60.2954 25.184C59.5487 24.5547 59.1327 23.6107 59.0474 22.352H61.2554C61.3087 22.928 61.4954 23.3867 61.8154 23.728C62.146 24.0587 62.61 24.224 63.2074 24.224C63.7194 24.224 64.1194 24.0853 64.4074 23.808C64.6954 23.52 64.8394 23.1467 64.8394 22.688C64.8394 22.144 64.6314 21.728 64.2154 21.44C63.7994 21.152 63.186 21.008 62.3754 21.008H61.9114V19.168H62.3754C63.8687 19.1893 64.6154 18.672 64.6154 17.616C64.6154 17.1573 64.482 16.8 64.2154 16.544C63.9487 16.2773 63.586 16.144 63.1274 16.144C62.6474 16.144 62.2527 16.2987 61.9434 16.608C61.634 16.9067 61.458 17.328 61.4154 17.872H59.2074C59.2714 16.72 59.6447 15.8347 60.3274 15.216C61.01 14.5867 61.9594 14.272 63.1754 14.272ZM69.0255 17.28C69.0255 16.736 69.1748 16.2293 69.4735 15.76C69.7828 15.2907 70.2362 14.912 70.8335 14.624C71.4415 14.336 72.1722 14.192 73.0255 14.192C73.8788 14.192 74.6042 14.336 75.2015 14.624C75.8095 14.912 76.2628 15.2907 76.5615 15.76C76.8708 16.2293 77.0255 16.736 77.0255 17.28C77.0255 17.8987 76.8762 18.4267 76.5775 18.864C76.2788 19.2907 75.8308 19.6107 75.2335 19.824C75.9055 20.08 76.4175 20.4533 76.7695 20.944C77.1322 21.424 77.3135 22.0107 77.3135 22.704C77.3135 23.4507 77.1268 24.096 76.7535 24.64C76.3802 25.1733 75.8682 25.5787 75.2175 25.856C74.5775 26.1333 73.8468 26.272 73.0255 26.272C72.2042 26.272 71.4682 26.1333 70.8175 25.856C70.1775 25.5787 69.6708 25.1733 69.2975 24.64C68.9348 24.096 68.7535 23.4507 68.7535 22.704C68.7535 22.0107 68.9295 21.424 69.2815 20.944C69.6442 20.4533 70.1615 20.08 70.8335 19.824C70.2362 19.6107 69.7828 19.2853 69.4735 18.848C69.1748 18.4107 69.0255 17.888 69.0255 17.28ZM71.2495 17.648C71.2495 18.16 71.4095 18.5547 71.7295 18.832C72.0495 19.1093 72.4815 19.248 73.0255 19.248C73.5802 19.248 74.0175 19.1093 74.3375 18.832C74.6575 18.5547 74.8175 18.16 74.8175 17.648C74.8175 17.136 74.6522 16.7413 74.3215 16.464C74.0015 16.176 73.5695 16.032 73.0255 16.032C72.4922 16.032 72.0602 16.176 71.7295 16.464C71.4095 16.7413 71.2495 17.136 71.2495 17.648ZM70.9455 22.576C70.9455 23.1413 71.1322 23.5893 71.5055 23.92C71.8788 24.2507 72.3855 24.416 73.0255 24.416C73.6655 24.416 74.1722 24.2507 74.5455 23.92C74.9295 23.5893 75.1215 23.1413 75.1215 22.576C75.1215 22 74.9242 21.5627 74.5295 21.264C74.1455 20.9547 73.6442 20.8 73.0255 20.8C72.4175 20.8 71.9162 20.9547 71.5215 21.264C71.1375 21.5627 70.9455 22 70.9455 22.576ZM78.749 23.728V21.856L84.157 14.576H86.573V21.776H88.045V23.728H86.573V26H84.301V23.728H78.749ZM84.477 17.216L81.053 21.776H84.477V17.216Z" fill="#FF6A95"/>
</svg>
