<svg width="61" height="61" viewBox="0 0 61 61" fill="none" xmlns="http://www.w3.org/2000/svg">
<circle cx="30.4988" cy="30.5" r="30" fill="#FCFCFF" stroke="#EFEFFF"/>
<path d="M30.4178 30.5C30.4178 27.8306 32.5575 25.6666 35.1971 25.6666C37.8366 25.6666 39.9764 27.8306 39.9764 30.5C39.9764 33.1694 37.8366 35.3333 35.1971 35.3333C32.5575 35.3333 30.4178 33.1694 30.4178 30.5Z" fill="#1ABCFE"/>
<path d="M20.8591 40.1666C20.8591 37.4973 22.9989 35.3333 25.6385 35.3333H30.4178V40.1666C30.4178 42.836 28.278 45 25.6385 45C22.9989 45 20.8591 42.836 20.8591 40.1666Z" fill="#0ACF83"/>
<path d="M30.4178 16V25.6666H35.1971C37.8367 25.6666 39.9764 23.5027 39.9764 20.8333C39.9764 18.164 37.8367 16 35.1971 16H30.4178Z" fill="#FF7262"/>
<path d="M20.8591 20.8333C20.8591 23.5027 22.9989 25.6666 25.6385 25.6666H30.4178V16H25.6385C22.9989 16 20.8591 18.164 20.8591 20.8333Z" fill="#F24E1E"/>
<path d="M20.8591 30.5C20.8591 33.1694 22.9989 35.3333 25.6385 35.3333H30.4178V25.6666H25.6385C22.9989 25.6666 20.8591 27.8306 20.8591 30.5Z" fill="#A259FF"/>
</svg>
