<svg width="48" height="26" viewBox="0 0 48 26" fill="none" xmlns="http://www.w3.org/2000/svg">
<g clip-path="url(#clip0_1_168)">
<path d="M7.58333 8.66669L3.25 13L7.58333 17.3334" stroke="#202142" stroke-width="2.36364" stroke-linecap="round" stroke-linejoin="round"/>
<path d="M18.4167 8.66669L22.75 13L18.4167 17.3334" stroke="#202142" stroke-width="2.36364" stroke-linecap="round" stroke-linejoin="round"/>
<path d="M15.1667 4.33331L10.8333 21.6666" stroke="#202142" stroke-width="2.36364" stroke-linecap="round" stroke-linejoin="round"/>
</g>
<path d="M38.63 16.81V18H32.092V16.922L35.522 13.156C35.9607 12.6707 36.278 12.232 36.474 11.84C36.6793 11.4387 36.782 11.042 36.782 10.65C36.782 10.146 36.6373 9.76333 36.348 9.502C36.0587 9.23133 35.6387 9.096 35.088 9.096C34.164 9.096 33.24 9.46 32.316 10.188L31.798 9.124C32.19 8.76 32.6893 8.47067 33.296 8.256C33.9027 8.032 34.514 7.92 35.13 7.92C36.082 7.92 36.8333 8.158 37.384 8.634C37.944 9.11 38.224 9.754 38.224 10.566C38.224 11.1447 38.098 11.6953 37.846 12.218C37.594 12.7313 37.174 13.3053 36.586 13.94L33.926 16.81H38.63ZM44.0705 11.686C44.6959 11.686 45.2419 11.8213 45.7085 12.092C46.1845 12.3533 46.5485 12.7267 46.8005 13.212C47.0619 13.688 47.1925 14.2387 47.1925 14.864C47.1925 15.508 47.0479 16.0727 46.7585 16.558C46.4785 17.0433 46.0725 17.4213 45.5405 17.692C45.0085 17.9627 44.3879 18.098 43.6785 18.098C43.0625 18.098 42.4559 17.9907 41.8585 17.776C41.2612 17.5613 40.7665 17.2673 40.3745 16.894L40.8785 15.83C41.8025 16.558 42.7405 16.922 43.6925 16.922C44.3552 16.922 44.8685 16.7447 45.2325 16.39C45.6059 16.026 45.7925 15.5267 45.7925 14.892C45.7925 14.2853 45.6059 13.7953 45.2325 13.422C44.8685 13.0487 44.3785 12.862 43.7625 12.862C42.8665 12.862 42.1479 13.2027 41.6065 13.884H40.6685V8.032H46.7725V9.194H42.0965V12.358C42.6285 11.91 43.2865 11.686 44.0705 11.686Z" fill="black"/>
<defs>
<clipPath id="clip0_1_168">
<rect width="26" height="26" fill="white"/>
</clipPath>
</defs>
</svg>
