<svg width="236" height="71" viewBox="0 0 236 71" fill="none" xmlns="http://www.w3.org/2000/svg">
<rect x="0.5" y="0.5" width="235" height="60" rx="30" fill="#FCFCFF"/>
<rect x="0.5" y="0.5" width="235" height="60" rx="30" stroke="#EFEFFF"/>
<g filter="url(#filter0_d_1_143)">
<rect x="5" y="5" width="107" height="51" rx="25.5" fill="white"/>
<rect x="5.5" y="5.5" width="106" height="50" rx="25" stroke="#EFEFFF"/>
<path d="M36.328 25.108H37.976V35.124H43.512V36.5H36.328V25.108ZM52.3569 28.436V36.5H50.7569V35.124C50.5222 35.604 50.1702 35.972 49.7009 36.228C49.2422 36.484 48.7035 36.612 48.0849 36.612C47.3702 36.612 46.7409 36.4413 46.1969 36.1C45.6635 35.7587 45.2475 35.2787 44.9489 34.66C44.6502 34.0307 44.5009 33.3 44.5009 32.468C44.5009 31.636 44.6502 30.9 44.9489 30.26C45.2582 29.62 45.6849 29.124 46.2289 28.772C46.7729 28.42 47.3915 28.244 48.0849 28.244C48.7035 28.244 49.2422 28.3773 49.7009 28.644C50.1595 28.9 50.5115 29.268 50.7569 29.748V28.436H52.3569ZM48.4689 35.332C49.1942 35.332 49.7542 35.0813 50.1489 34.58C50.5542 34.068 50.7569 33.3533 50.7569 32.436C50.7569 31.508 50.5542 30.7933 50.1489 30.292C49.7542 29.7907 49.1889 29.54 48.4529 29.54C47.7275 29.54 47.1569 29.8013 46.7409 30.324C46.3355 30.836 46.1329 31.5507 46.1329 32.468C46.1329 33.3747 46.3355 34.0787 46.7409 34.58C47.1569 35.0813 47.7329 35.332 48.4689 35.332ZM56.8269 29.684V33.732C56.8269 34.2867 56.9442 34.6813 57.1789 34.916C57.4242 35.14 57.7602 35.252 58.1869 35.252C58.4642 35.252 58.7469 35.2093 59.0349 35.124V36.436C58.6829 36.5533 58.2829 36.612 57.8349 36.612C57.0029 36.612 56.3575 36.3773 55.8989 35.908C55.4402 35.4387 55.2109 34.756 55.2109 33.86V29.684H53.6429V28.436H55.2109V26.42L56.8269 25.86V28.436H59.0509V29.684H56.8269ZM67.4234 32.5H61.6634C61.7167 34.388 62.5754 35.332 64.2394 35.332C65.1674 35.332 66.0154 35.028 66.7834 34.42L67.2794 35.572C66.9167 35.892 66.4527 36.148 65.8874 36.34C65.3327 36.5213 64.7727 36.612 64.2074 36.612C62.9167 36.612 61.9034 36.244 61.1674 35.508C60.4314 34.7613 60.0634 33.7427 60.0634 32.452C60.0634 31.6307 60.2234 30.9 60.5434 30.26C60.874 29.62 61.3327 29.124 61.9194 28.772C62.506 28.42 63.1727 28.244 63.9194 28.244C65.0074 28.244 65.8607 28.596 66.4794 29.3C67.1087 30.004 67.4234 30.98 67.4234 32.228V32.5ZM63.9514 29.444C63.3434 29.444 62.8474 29.6253 62.4634 29.988C62.0794 30.3507 61.834 30.868 61.7274 31.54H65.9994C65.9354 30.8573 65.7274 30.34 65.3754 29.988C65.0234 29.6253 64.5487 29.444 63.9514 29.444ZM72.0938 36.612C70.6858 36.612 69.5764 36.2707 68.7658 35.588L69.2458 34.42C70.0884 35.06 71.0538 35.38 72.1418 35.38C72.6964 35.38 73.1178 35.2893 73.4058 35.108C73.6938 34.916 73.8378 34.6493 73.8378 34.308C73.8378 34.02 73.7364 33.796 73.5338 33.636C73.3418 33.4653 73.0111 33.3213 72.5418 33.204L71.1978 32.884C70.4938 32.7347 69.9551 32.4733 69.5818 32.1C69.2191 31.716 69.0378 31.2413 69.0378 30.676C69.0378 29.9507 69.3258 29.364 69.9018 28.916C70.4884 28.468 71.2618 28.244 72.2218 28.244C72.7978 28.244 73.3418 28.3347 73.8538 28.516C74.3764 28.6973 74.8191 28.9533 75.1818 29.284L74.6858 30.42C73.9071 29.8013 73.0858 29.492 72.2218 29.492C71.6991 29.492 71.2938 29.5933 71.0058 29.796C70.7178 29.988 70.5738 30.26 70.5738 30.612C70.5738 30.8893 70.6644 31.1133 70.8458 31.284C71.0271 31.4547 71.3151 31.588 71.7098 31.684L73.0858 32.02C73.8538 32.1907 74.4191 32.4627 74.7818 32.836C75.1551 33.1987 75.3418 33.6733 75.3418 34.26C75.3418 34.9853 75.0484 35.5613 74.4618 35.988C73.8858 36.404 73.0964 36.612 72.0938 36.612ZM79.2644 29.684V33.732C79.2644 34.2867 79.3817 34.6813 79.6164 34.916C79.8617 35.14 80.1977 35.252 80.6244 35.252C80.9017 35.252 81.1844 35.2093 81.4724 35.124V36.436C81.1204 36.5533 80.7204 36.612 80.2724 36.612C79.4404 36.612 78.795 36.3773 78.3364 35.908C77.8777 35.4387 77.6484 34.756 77.6484 33.86V29.684H76.0804V28.436H77.6484V26.42L79.2644 25.86V28.436H81.4884V29.684H79.2644Z" fill="#202142"/>
</g>
<path opacity="0.6" d="M143.328 36.5V25.22H148.112C149.317 25.22 150.24 25.5133 150.88 26.1C151.531 26.676 151.856 27.476 151.856 28.5C151.856 29.524 151.531 30.3293 150.88 30.916C150.24 31.5027 149.317 31.796 148.112 31.796H144.992V36.5H143.328ZM144.992 30.468H147.936C148.693 30.468 149.264 30.2973 149.648 29.956C150.032 29.6147 150.224 29.1293 150.224 28.5C150.224 27.8813 150.032 27.4013 149.648 27.06C149.264 26.7187 148.693 26.548 147.936 26.548H144.992V30.468ZM156.796 36.644C155.996 36.644 155.303 36.4787 154.716 36.148C154.13 35.8067 153.676 35.3267 153.356 34.708C153.036 34.0787 152.876 33.332 152.876 32.468C152.876 31.604 153.036 30.8627 153.356 30.244C153.676 29.6147 154.13 29.1347 154.716 28.804C155.303 28.4627 155.996 28.292 156.796 28.292C157.596 28.292 158.29 28.4627 158.876 28.804C159.474 29.1347 159.932 29.6147 160.252 30.244C160.583 30.8627 160.748 31.604 160.748 32.468C160.748 33.332 160.583 34.0787 160.252 34.708C159.932 35.3267 159.474 35.8067 158.876 36.148C158.29 36.4787 157.596 36.644 156.796 36.644ZM156.796 35.38C157.5 35.38 158.06 35.1347 158.476 34.644C158.892 34.1533 159.1 33.428 159.1 32.468C159.1 31.508 158.892 30.788 158.476 30.308C158.06 29.8173 157.5 29.572 156.796 29.572C156.103 29.572 155.548 29.8173 155.132 30.308C154.716 30.788 154.508 31.508 154.508 32.468C154.508 33.428 154.711 34.1533 155.116 34.644C155.532 35.1347 156.092 35.38 156.796 35.38ZM162.637 39.956V30.372C162.637 30.0627 162.621 29.748 162.589 29.428C162.568 29.0973 162.541 28.7667 162.509 28.436H164.077L164.237 30.26H164.061C164.232 29.652 164.573 29.172 165.085 28.82C165.608 28.468 166.226 28.292 166.941 28.292C167.656 28.292 168.28 28.4627 168.813 28.804C169.346 29.1347 169.757 29.6093 170.045 30.228C170.344 30.8467 170.493 31.5933 170.493 32.468C170.493 33.332 170.344 34.0787 170.045 34.708C169.757 35.3373 169.346 35.8173 168.813 36.148C168.28 36.4787 167.656 36.644 166.941 36.644C166.237 36.644 165.624 36.4733 165.101 36.132C164.589 35.78 164.248 35.3053 164.077 34.708H164.253V39.956H162.637ZM166.541 35.38C167.245 35.38 167.805 35.1347 168.221 34.644C168.648 34.1533 168.861 33.428 168.861 32.468C168.861 31.508 168.648 30.788 168.221 30.308C167.805 29.8173 167.245 29.572 166.541 29.572C165.837 29.572 165.272 29.8173 164.845 30.308C164.429 30.788 164.221 31.508 164.221 32.468C164.221 33.428 164.429 34.1533 164.845 34.644C165.272 35.1347 165.837 35.38 166.541 35.38ZM175.251 36.644C174.28 36.644 173.55 36.3827 173.059 35.86C172.579 35.3267 172.339 34.5107 172.339 33.412V28.436H173.955V33.38C173.955 34.052 174.094 34.548 174.371 34.868C174.648 35.188 175.07 35.348 175.635 35.348C176.275 35.348 176.792 35.1347 177.187 34.708C177.582 34.2813 177.779 33.716 177.779 33.012V28.436H179.395V36.5H177.827V34.772H178.035C177.811 35.3693 177.454 35.8333 176.963 36.164C176.472 36.484 175.902 36.644 175.251 36.644ZM181.762 36.5V24.724H183.378V36.5H181.762ZM188.835 36.644C188.12 36.644 187.496 36.4787 186.963 36.148C186.429 35.8173 186.013 35.3373 185.715 34.708C185.427 34.0787 185.283 33.332 185.283 32.468C185.283 31.5933 185.427 30.8467 185.715 30.228C186.013 29.6093 186.429 29.1347 186.963 28.804C187.496 28.4627 188.12 28.292 188.835 28.292C189.539 28.292 190.152 28.468 190.675 28.82C191.197 29.172 191.544 29.652 191.715 30.26H191.539L191.699 28.436H193.267C193.235 28.7667 193.203 29.0973 193.171 29.428C193.149 29.748 193.139 30.0627 193.139 30.372V36.5H191.523V34.708H191.699C191.528 35.3053 191.176 35.78 190.643 36.132C190.12 36.4733 189.517 36.644 188.835 36.644ZM189.235 35.38C189.928 35.38 190.483 35.1347 190.899 34.644C191.325 34.1533 191.539 33.428 191.539 32.468C191.539 31.508 191.325 30.788 190.899 30.308C190.483 29.8173 189.928 29.572 189.235 29.572C188.531 29.572 187.965 29.8173 187.539 30.308C187.123 30.788 186.914 31.508 186.914 32.468C186.914 33.428 187.123 34.1533 187.539 34.644C187.955 35.1347 188.52 35.38 189.235 35.38ZM195.465 36.5V30.436C195.465 30.1053 195.454 29.7747 195.433 29.444C195.422 29.1027 195.401 28.7667 195.368 28.436H196.937L197.113 30.516H196.857C196.963 30.0147 197.145 29.5987 197.401 29.268C197.657 28.9373 197.966 28.692 198.329 28.532C198.702 28.372 199.091 28.292 199.497 28.292C199.667 28.292 199.811 28.3027 199.929 28.324C200.046 28.3347 200.163 28.356 200.281 28.388L200.265 29.828C200.083 29.7533 199.923 29.7107 199.785 29.7C199.657 29.6787 199.497 29.668 199.305 29.668C198.835 29.668 198.435 29.7747 198.105 29.988C197.774 30.1907 197.523 30.468 197.353 30.82C197.182 31.172 197.097 31.5507 197.097 31.956V36.5H195.465Z" fill="#202142"/>
<defs>
<filter id="filter0_d_1_143" x="0" y="5" width="117" height="66" filterUnits="userSpaceOnUse" color-interpolation-filters="sRGB">
<feFlood flood-opacity="0" result="BackgroundImageFix"/>
<feColorMatrix in="SourceAlpha" type="matrix" values="0 0 0 0 0 0 0 0 0 0 0 0 0 0 0 0 0 0 127 0" result="hardAlpha"/>
<feMorphology radius="10" operator="erode" in="SourceAlpha" result="effect1_dropShadow_1_143"/>
<feOffset dy="10"/>
<feGaussianBlur stdDeviation="7.5"/>
<feColorMatrix type="matrix" values="0 0 0 0 0.00645834 0 0 0 0 0.0214645 0 0 0 0 0.516667 0 0 0 0.05 0"/>
<feBlend mode="normal" in2="BackgroundImageFix" result="effect1_dropShadow_1_143"/>
<feBlend mode="normal" in="SourceGraphic" in2="effect1_dropShadow_1_143" result="shape"/>
</filter>
</defs>
</svg>
