<svg width="61" height="61" viewBox="0 0 61 61" fill="none" xmlns="http://www.w3.org/2000/svg">
<circle cx="30.4988" cy="30.5" r="30" fill="#FCFCFF" stroke="#EFEFFF"/>
<g clip-path="url(#clip0_1_428)">
<path d="M16.9138 17.242H44.1732V43.7579H16.9138V17.242Z" fill="#2E001E"/>
<path d="M15.6747 16.003V44.997H45.4122V16.003H15.6747ZM16.9138 17.242H44.1732V43.7579H16.9138V17.242Z" fill="#FF2BC2"/>
<path d="M37.2716 28.1829C37.0858 28.0962 36.8503 28.059 36.553 28.059C34.9917 28.059 33.9509 29.2609 33.9509 31.2558C33.9509 33.5357 35.0165 34.4526 36.4043 34.4526C36.7017 34.4526 37.0238 34.4154 37.2592 34.3163V28.1829H37.2716ZM31.7206 31.3549C31.7206 28.4679 33.5792 26.2128 36.6273 26.2128C36.8875 26.2128 37.0238 26.2128 37.2716 26.2376V23.016C37.2716 22.9417 37.3336 22.8921 37.3955 22.8921H39.3904C39.4895 22.8921 39.5143 22.9293 39.5143 22.9912V34.3163C39.5143 34.6508 39.5143 35.0721 39.5763 35.5306C39.5763 35.6173 39.5763 35.6297 39.5019 35.6669C38.4611 36.1625 37.3707 36.3855 36.3299 36.3855C33.6412 36.3855 31.7206 34.7252 31.7206 31.3549ZM27.4954 29.3476L30.9648 36.0757C31.0267 36.1749 30.9896 36.274 30.8905 36.274H28.7345C28.5982 36.274 28.5362 36.2368 28.4743 36.1129C27.6813 34.4774 26.8759 32.7798 26.0457 31.0204H26.0209C25.2775 32.6807 24.4597 34.4897 23.6667 36.1253C23.6048 36.2244 23.5428 36.2616 23.4437 36.2616H21.3868C21.2629 36.2616 21.2506 36.1625 21.3125 36.0881L24.7075 29.5583L21.424 23.0656C21.3497 22.9665 21.424 22.8797 21.5108 22.8797H23.6419C23.7658 22.8797 23.8278 22.9045 23.865 23.016C24.6456 24.664 25.4386 26.2872 26.182 27.9475H26.2068C26.9255 26.3119 27.7185 24.664 28.4743 23.0408C28.5362 22.9417 28.5734 22.8797 28.6973 22.8797H30.6922C30.7913 22.8797 30.8285 22.9541 30.7665 23.0656L27.4954 29.3476Z" fill="#FF2BC2"/>
</g>
<defs>
<clipPath id="clip0_1_428">
<rect width="29.7375" height="29" fill="white" transform="translate(15.6747 16)"/>
</clipPath>
</defs>
</svg>
